<?xml version="1.0" standalone="no"?>
<!DOCTYPE svg PUBLIC "-//W3C//DTD SVG 20010904//EN"
 "http://www.w3.org/TR/2001/REC-SVG-20010904/DTD/svg10.dtd">
<svg version="1.0" xmlns="http://www.w3.org/2000/svg"
 width="980.000000pt" height="898.000000pt" viewBox="0 0 980.000000 898.000000"
 preserveAspectRatio="xMidYMid meet">

<g transform="translate(0.000000,898.000000) scale(0.100000,-0.100000)"
fill="#000000" stroke="none">
<path d="M204 8949 c-67 -26 -132 -83 -169 -150 l-30 -54 0 -4250 0 -4250 28
-57 c34 -70 100 -130 176 -160 l56 -23 3285 0 c3121 0 3288 1 3335 18 108 38
194 130 215 230 7 36 9 1142 8 3672 l-3 3620 -28 53 c-15 29 -45 69 -65 90
-21 20 -327 303 -680 627 -460 423 -658 598 -699 620 l-57 30 -2660 2 c-2631
2 -2662 2 -2712 -18z m4926 -1129 c0 -428 3 -537 14 -564 18 -43 78 -92 132
-105 28 -7 233 -11 603 -11 l561 0 0 -3255 0 -3255 -2885 0 -2885 0 0 3860 0
3860 2230 0 2230 0 0 -530z"/>
<path d="M1475 5429 c-45 -13 -86 -60 -92 -105 -5 -45 25 -100 67 -121 20 -10
240 -13 998 -13 1056 0 1008 -2 1046 54 9 14 16 45 16 72 0 40 -5 51 -34 79
-21 19 -49 35 -73 38 -59 10 -1894 6 -1928 -4z"/>
<path d="M1475 4419 c-45 -13 -86 -60 -92 -105 -5 -45 25 -100 67 -121 20 -10
461 -13 2106 -13 l2081 0 34 23 c22 15 39 38 49 65 14 40 13 45 -5 79 -11 20
-33 46 -48 57 l-28 21 -2067 2 c-1183 1 -2080 -2 -2097 -8z"/>
<path d="M1443 3370 c-35 -21 -63 -66 -63 -100 0 -44 32 -92 74 -111 39 -18
118 -19 2098 -19 1429 0 2065 3 2085 11 42 15 82 58 89 94 8 44 -18 100 -58
125 -33 20 -44 20 -2113 20 -2045 0 -2081 0 -2112 -20z"/>
<path d="M1454 2341 c-68 -31 -92 -106 -54 -168 41 -68 -139 -63 2157 -63
2067 0 2078 0 2111 20 40 25 66 81 58 125 -7 36 -47 79 -89 94 -20 8 -656 11
-2085 11 -1980 0 -2059 -1 -2098 -19z"/>
<path d="M7982 8549 c-26 -13 -55 -39 -70 -62 l-27 -41 -3 -3263 -2 -3264 391
-857 c228 -500 402 -869 417 -886 75 -81 211 -87 290 -13 33 30 25 13 444 928
l373 814 3 3245 c1 1785 0 3260 -3 3278 -7 41 -56 97 -106 123 -37 18 -66 19
-851 19 -811 0 -813 0 -856 -21z m788 -3326 l5 -2973 33 -32 c29 -30 38 -33
92 -33 54 0 63 3 92 33 l33 32 5 2973 5 2972 176 3 176 2 6 -91 c4 -51 7
-1445 7 -3098 l0 -3006 -149 -325 -148 -325 -264 -2 -264 -3 -147 325 -148
324 0 3101 0 3100 243 -2 242 -3 5 -2972z"/>
</g>
</svg>
