<?xml version="1.0" standalone="no"?>
<!DOCTYPE svg PUBLIC "-//W3C//DTD SVG 20010904//EN"
 "http://www.w3.org/TR/2001/REC-SVG-20010904/DTD/svg10.dtd">
<svg version="1.0" xmlns="http://www.w3.org/2000/svg"
 width="512.000000pt" height="512.000000pt" viewBox="0 0 512.000000 512.000000"
 preserveAspectRatio="xMidYMid meet">

<g transform="translate(0.000000,512.000000) scale(0.100000,-0.100000)"
fill="#000000" stroke="none">
<path d="M2394 4925 c-76 -16 -167 -53 -242 -96 -43 -25 -314 -290 -1079
-1054 -1134 -1131 -1067 -1057 -1068 -1195 0 -91 26 -149 95 -214 87 -81 218
-98 325 -43 38 20 285 261 1035 1012 555 555 1001 995 1022 1006 21 10 56 19
78 19 22 0 57 -9 78 -19 21 -11 467 -451 1022 -1006 750 -751 997 -992 1035
-1012 107 -55 238 -38 325 43 67 63 95 123 95 209 0 135 9 123 -446 580 l-409
411 0 451 c0 299 -4 470 -11 505 -30 138 -142 228 -284 228 -118 0 -214 -61
-267 -169 -21 -42 -23 -62 -26 -234 l-4 -189 -321 319 c-330 326 -368 358
-497 410 -130 52 -319 68 -456 38z"/>
<path d="M2510 3789 c-30 -12 -1765 -1742 -1786 -1781 -12 -23 -14 -133 -14
-692 0 -441 4 -683 11 -718 29 -139 140 -289 265 -355 119 -63 121 -63 631
-63 l463 0 0 650 0 650 480 0 480 0 0 -650 0 -650 463 0 c510 0 512 0 631 63
125 66 236 216 265 355 7 35 11 277 11 718 0 559 -2 669 -14 692 -23 42 -1757
1770 -1789 1782 -34 12 -64 12 -97 -1z"/>
</g>
</svg>
