<?xml version="1.0" standalone="no"?>
<!DOCTYPE svg PUBLIC "-//W3C//DTD SVG 20010904//EN"
 "http://www.w3.org/TR/2001/REC-SVG-20010904/DTD/svg10.dtd">
<svg version="1.0" xmlns="http://www.w3.org/2000/svg"
 width="512.000000pt" height="512.000000pt" viewBox="0 0 512.000000 512.000000"
 preserveAspectRatio="xMidYMid meet">

<g transform="translate(0.000000,512.000000) scale(0.100000,-0.100000)"
fill="#000000" stroke="none">
<path d="M790 4812 c-84 -6 -161 -26 -240 -64 -68 -33 -101 -57 -165 -122
-130 -130 -187 -265 -188 -441 -1 -112 14 -176 65 -285 33 -69 56 -100 122
-166 129 -128 265 -184 441 -184 258 1 466 132 576 365 43 92 59 167 59 274
-1 91 -11 144 -47 231 -69 170 -218 309 -391 365 -55 18 -173 32 -232 27z"/>
<path d="M3110 4095 l0 -85 -780 0 -780 0 0 -105 0 -105 50 0 50 0 0 -229 0
-230 -37 16 c-21 8 -73 33 -115 54 l-78 39 -182 -1 -183 0 -119 -140 c-66 -77
-122 -136 -126 -132 -4 4 -53 64 -110 133 -57 69 -106 128 -110 133 -5 5 -505
-80 -518 -88 -4 -3 -31 -904 -32 -1037 l0 -108 104 0 c122 0 116 8 116 -137 0
-86 1 -93 20 -93 20 0 20 -7 20 -689 l0 -688 -62 -13 c-35 -6 -102 -21 -151
-32 l-87 -20 0 -119 0 -119 98 0 c55 0 156 10 234 23 l137 24 3 -21 c3 -20 10
-21 141 -24 l137 -3 0 711 0 710 80 0 80 0 2 -708 3 -707 138 -3 c132 -2 137
-2 137 18 0 25 7 25 168 0 80 -13 162 -20 218 -18 l89 3 3 117 c1 65 0 118 -3
118 -4 0 -56 11 -117 25 -61 14 -126 25 -144 25 l-34 0 0 695 c0 688 0 695 20
695 16 0 20 7 20 33 0 86 50 1000 54 1005 3 3 45 -13 93 -35 l88 -40 5 -604 5
-604 748 -3 747 -2 0 -195 0 -195 -392 -443 c-215 -243 -400 -452 -411 -465
l-20 -22 149 0 149 1 275 311 275 312 3 -312 2 -312 85 0 85 0 0 310 c0 171 4
310 8 310 5 0 131 -139 282 -310 l274 -310 149 0 148 0 -20 27 c-11 16 -198
226 -415 468 l-395 440 0 193 -1 192 835 0 835 0 2 1033 3 1032 33 3 32 3 0
105 0 104 -800 0 -800 0 0 85 0 85 -205 0 -205 0 0 -85z m1800 -1250 l0 -955
-1555 0 -1555 0 0 490 c0 270 1 490 3 490 2 0 138 -61 302 -135 164 -74 300
-135 302 -135 1 0 3 85 3 188 l0 188 -302 145 -303 145 -3 267 -2 267 1555 0
1555 0 0 -955z"/>
<path d="M3070 3369 c-195 -115 -391 -231 -435 -256 l-80 -46 65 -22 65 -22 3
-196 2 -197 -30 0 -30 0 0 -130 0 -130 110 0 110 0 0 130 0 130 -35 0 -35 0 0
180 c0 99 2 180 5 180 3 0 243 -76 535 -170 291 -93 534 -170 540 -170 20 0
689 605 677 611 -16 9 -1093 319 -1104 318 -4 0 -168 -95 -363 -210z"/>
<path d="M3020 2624 l0 -236 23 7 c12 3 70 9 128 12 82 4 118 2 165 -12 73
-21 232 -96 377 -176 60 -33 110 -59 111 -57 2 1 17 23 34 48 48 70 128 142
235 210 l97 62 0 185 0 185 -38 -33 c-169 -152 -272 -239 -282 -239 -7 0 -197
63 -422 140 -226 77 -414 140 -419 140 -5 0 -9 -102 -9 -236z"/>
</g>
</svg>
