<?xml version="1.0" standalone="no"?>
<!DOCTYPE svg PUBLIC "-//W3C//DTD SVG 20010904//EN"
 "http://www.w3.org/TR/2001/REC-SVG-20010904/DTD/svg10.dtd">
<svg version="1.0" xmlns="http://www.w3.org/2000/svg"
 width="980.000000pt" height="964.000000pt" viewBox="0 0 980.000000 964.000000"
 preserveAspectRatio="xMidYMid meet">

<g transform="translate(0.000000,964.000000) scale(0.100000,-0.100000)"
fill="#000000" stroke="none">
<path d="M7221 9614 c-101 -36 -178 -106 -225 -204 l-31 -65 0 -830 0 -830 27
-57 c37 -80 107 -152 187 -191 63 -31 71 -32 207 -35 111 -3 154 -1 200 13
116 33 197 104 251 221 l28 59 3 794 c2 693 1 801 -13 854 -29 112 -107 206
-214 256 -52 24 -67 26 -216 28 -125 2 -170 -1 -204 -13z"/>
<path d="M2259 9597 c-102 -43 -172 -109 -218 -206 l-26 -56 -3 -805 c-3 -784
-2 -806 18 -870 37 -121 128 -212 249 -250 90 -28 282 -28 374 0 80 25 155 81
201 153 69 104 67 75 64 968 l-3 804 -32 66 c-39 80 -111 150 -191 187 -53 25
-67 27 -217 30 -148 2 -164 1 -216 -21z"/>
<path d="M491 8825 c-183 -40 -350 -175 -433 -351 -62 -132 -58 166 -58 -4049
0 -4276 -6 -3919 69 -4070 86 -174 250 -299 436 -334 44 -9 1193 -11 4430 -9
l4370 3 73 27 c156 57 282 168 353 313 75 153 69 -210 67 4102 l-3 3878 -22
65 c-66 193 -221 347 -413 413 -63 21 -78 22 -622 25 l-558 3 0 -623 c0 -676
0 -680 -56 -795 -77 -160 -239 -273 -456 -318 -46 -10 -130 -15 -246 -15 -205
0 -264 11 -392 73 -69 34 -102 58 -175 132 -74 73 -99 106 -133 175 -72 148
-72 144 -72 793 l0 577 -1710 0 -1709 0 -3 -607 -3 -608 -29 -78 c-73 -202
-238 -365 -439 -434 -80 -27 -88 -28 -292 -28 -204 0 -212 1 -292 28 -201 69
-366 232 -439 434 l-29 78 -3 608 -3 607 -572 -1 c-447 0 -586 -4 -636 -14z
m8679 -5330 l0 -2865 -4270 0 -4270 0 0 2865 0 2865 4270 0 4270 0 0 -2865z"/>
<path d="M5169 5551 l-24 -19 -3 -504 c-1 -276 0 -513 3 -526 3 -12 14 -31 25
-42 19 -19 36 -20 615 -20 l596 0 24 25 25 24 0 514 c0 505 0 515 -21 541
l-20 26 -599 0 c-574 0 -599 -1 -621 -19z"/>
<path d="M7005 5545 l-25 -24 0 -516 0 -516 25 -24 24 -25 596 0 596 0 24 25
25 24 0 516 0 516 -25 24 -24 25 -596 0 -596 0 -24 -25z"/>
<path d="M1513 3970 c-12 -5 -26 -18 -32 -29 -7 -13 -11 -190 -11 -536 l0
-516 25 -24 24 -25 590 0 590 0 28 24 28 24 0 521 0 520 -23 23 -23 23 -587 2
c-326 1 -597 -2 -609 -7z"/>
<path d="M3333 3956 l-28 -24 0 -522 0 -522 28 -24 28 -24 590 0 590 0 24 25
25 24 0 519 c0 497 -1 521 -19 543 l-19 24 -595 3 -595 2 -29 -24z"/>
<path d="M5173 3956 l-28 -24 0 -522 0 -522 28 -24 29 -24 595 2 595 3 19 24
c18 22 19 46 19 540 -1 390 -4 520 -13 532 -29 38 -40 39 -636 39 l-580 0 -28
-24z"/>
<path d="M7009 3951 l-29 -29 0 -506 c0 -349 3 -513 11 -529 6 -14 22 -30 36
-36 34 -15 1162 -15 1196 0 14 6 30 22 36 36 8 16 11 180 11 529 l0 506 -29
29 -29 29 -587 0 -587 0 -29 -29z"/>
<path d="M1495 2355 l-25 -24 0 -516 c0 -318 4 -523 10 -535 20 -38 56 -40
632 -40 633 0 619 -2 638 69 7 28 10 199 8 532 l-3 491 -28 24 -28 24 -590 0
-590 0 -24 -25z"/>
<path d="M3333 2356 l-28 -24 -3 -491 c-2 -333 1 -504 8 -532 19 -71 5 -69
638 -69 576 0 612 2 632 40 6 12 10 217 10 535 l0 516 -25 24 -24 25 -590 0
-590 0 -28 -24z"/>
<path d="M5172 2360 c-12 -11 -24 -31 -27 -43 -3 -12 -4 -248 -3 -524 l3 -502
23 -23 23 -23 593 0 594 0 26 24 26 24 0 519 0 519 -25 24 -24 25 -594 0
c-582 0 -594 0 -615 -20z"/>
<path d="M7009 2361 l-24 -19 -3 -520 -3 -520 25 -29 24 -28 597 0 597 0 24
28 24 28 0 505 c0 533 -1 551 -45 568 -9 3 -281 6 -605 6 -564 0 -589 -1 -611
-19z"/>
</g>
</svg>
